<?xml version="1.0" encoding="UTF-8"?>
<!DOCTYPE svg PUBLIC "-//W3C//DTD SVG 1.1//EN" "http://www.w3.org/Graphics/SVG/1.1/DTD/svg11.dtd">
<!-- Creator: CorelDRAW X7 -->
<svg xmlns="http://www.w3.org/2000/svg" xml:space="preserve" width="300mm" height="250mm" version="1.1" style="shape-rendering:geometricPrecision; text-rendering:geometricPrecision; image-rendering:optimizeQuality; fill-rule:evenodd; clip-rule:evenodd"
viewBox="0 0 3000000 2500000"
 xmlns:xlink="http://www.w3.org/1999/xlink">
 <defs>
  <style type="text/css">
   <![CDATA[
    .fil0 {fill:white}
   ]]>
  </style>
 </defs>
 <g id="Слой_x0020_1">
  <metadata id="CorelCorpID_0Corel-Layer"/>
  <path class="fil0" d="M523190 2358477c-18843,0 -30858,-3560 -45862,-7055l32357 -31144c5673,-5134 5635,-5618 10287,-10879l42023 -42644c12409,8309 17577,14111 38806,14111 -5241,7826 -73801,77611 -77611,77611zm328083 -91722l0 0zm3528 -3528l-3528 3528 3528 -3528zm3527 -3528l-3527 3528 3527 -3528zm3528 -3527l-3528 3527 3528 -3527zm1830917 -3528l0 0zm-1827389 0l-3528 3528 3528 -3528zm1830917 -3528l-3528 3528 3528 -3528zm3527 -3528l-3527 3528 3527 -3528zm3528 -3528l-3528 3528 3528 -3528zm3528 -3527l-3528 3527 3528 -3527zm-2271889 98777c-10597,0 -22759,-7666 -35278,-10583 3667,-13734 38455,-43746 50271,-55562 14957,-14957 41571,-38172 52035,-53799 16740,1393 26646,7056 45861,7056 -6879,10272 -109378,112888 -112889,112888zm430389 -84666l35278 -35278c-3085,11552 -6637,12146 -14885,20393 -8247,8248 -8841,11800 -20393,14885zm38806 -38806l-3528 3528 3528 -3528zm-260233 25518c-823,-26824 919,-20170 23871,-25518l-23871 25518zm1632538 83843c-10597,0 -22759,-7667 -35278,-10583 4073,-15254 18564,-23857 29104,-34396 11436,-11433 20405,-20244 31740,-31761 28454,-28910 19034,-13286 38586,-24916 2110,-1255 5202,-4155 7751,-6451 5714,-5146 -1578,-4165 10216,-7364 8262,-2241 16789,2582 30770,2582 -6879,10273 -109378,112889 -112889,112889zm-1368778 -112889l-3527 3528 3527 -3528zm1799167 28223l35278 -35278c-3085,11552 -6637,12146 -14885,20393 -8247,8248 -8841,11800 -20393,14885zm-497417 49389c-19608,-437 -26154,-9168 -38805,-17639l73201 -74966c9316,-9341 15468,-20171 29104,-23812 0,22694 1421,25123 10584,38805l-57026 55864c-8638,7657 -13898,9914 -17058,21748zm-1298222 -81139l-3528 3527 3528 -3527zm3528 -3528l-3528 3528 3528 -3528zm-546806 98778c-19608,-437 -26154,-9168 -38805,-17639l97911 -99644c10879,6164 20507,12156 32617,14977 -4365,16344 -10379,14923 -24990,31455l-3275 3780c-704,745 -2783,2824 -3528,3528l-21530 20804c-13005,12621 -35329,31237 -38400,42739zm2377723 -102306l-3528 3528 3528 -3528zm-381000 144639c-18843,0 -30858,-3560 -45862,-7056l121794 -121623 68706 -15960c-8352,12474 -141392,144639 -144638,144639zm-1449917 -141111l0 0zm1834444 -7056l-3527 3528 3527 -3528zm3528 -3527l-3528 3527 3528 -3527zm3528 -3528l-3528 3528 3528 -3528zm0 0l0 0zm-2456170 69721l-30913 -23860 6760 -7350c470,-506 1219,-1294 1705,-1823 487,-528 1210,-1292 1700,-1829l36988 -37095c527,-499 1320,-1181 1843,-1685 522,-503 1288,-1214 1801,-1726l8391 -9248c9661,-10545 31960,-26690 36062,-38022 7656,5127 8028,7038 15150,13072 5589,4736 11076,7924 16600,11623l-96087 97943zm1841500 -14111l-30913 -23860 27654 -28790c12022,-10877 64458,-61320 67596,-69988l31750 24694 -96087 97944zm-1900636 -41499c-3161,-11839 -14704,-22099 -21166,-31750 15534,-8220 13925,-12445 25741,-23647l25283 -24107c265,-256 5144,-5030 5342,-5241l26378 -26538c6273,-6664 9754,-12167 19561,-15717 5677,10728 14753,20941 17639,31750l-71436 73203c-8892,8943 -14257,18553 -27342,22047zm1841500 -14111c-3161,-11839 -14704,-22100 -21166,-31750 13154,-6960 17628,-15964 33335,-30165l23031 -22830c497,-530 1176,-1325 1664,-1864 488,-540 1149,-1350 1632,-1896l21401 -20932c505,-521 1183,-1318 1681,-1846l3335 -3721c502,-525 1179,-1322 1694,-1834l14532 -10162c5677,10728 14753,20940 17639,31750 -6641,9918 -84690,91488 -98778,95250zm-1876777 -49389l-7056 0c-2859,-12274 -12015,-28177 -17639,-38806 10304,-3730 15464,-13987 27912,-25004l19561 -19245c2317,-2247 4828,-4754 7055,-7056l47644 -47607c3895,-2317 -2661,-2280 10717,-3393 307,13764 6007,29268 10583,38805l-83084 82721c-6921,6532 -12140,9770 -15693,19585zm462138 215194l334262 -336016c-1639,11680 -3803,20330 -6853,31952 -5896,22464 -5586,21286 -18645,34272l-63547 63453c-4348,4254 -3387,3645 -5131,5453 -4684,4855 -6401,6186 -10718,10448 -7652,7556 -12488,13462 -20820,21514l-45861 45861c-151,155 -3841,4341 -5022,5562 -5413,5595 -5652,5135 -11109,10057 -14059,12680 -27625,29083 -41604,43062 -14381,14382 -27557,29110 -42170,42497 -14529,13312 -41547,16938 -62782,21885zm1379362 -229305l-7056 0c-2859,-12274 -12015,-28177 -17639,-38806 6529,-2363 3171,-1003 6804,-3778l21108 -21226c4927,-4361 -1118,1518 5566,-5018l31619 -31881c528,-499 1321,-1180 1849,-1679l31354 -32146c546,-480 1244,-1257 1834,-1693 6790,-5021 981,-3905 12755,-4884 307,13764 6007,29268 10583,38805 -10431,6986 -12497,12584 -23059,22802l-70577 70535c-4004,5394 -2531,1757 -5141,8969zm462138 215194l334262 -336016c-1639,11680 -3803,20330 -6853,31952 -9049,34478 -19596,32480 -44879,60955l-119843 120046c-151,155 -3841,4341 -5022,5561l-52713 53120c-52529,52529 -36349,48400 -104952,64382zm-1866194 -144639l0 -225777 100269 -44370c20207,-8395 92443,-42835 104342,-43825 18568,79699 -15601,174647 -60997,228281 -30072,35530 -98091,81903 -143614,85691zm1640417 -45861c-15784,-3677 -39452,-23427 -50323,-34344 -95418,-95816 -112607,-240492 -40036,-348820 28257,-42178 49472,-58651 90359,-86030l74792 242810c11784,25100 11067,13506 -4741,53019l-70051 173365zm-1710973 215195c6108,-9121 4220,-5280 12150,-12545 492,-450 6889,-6746 7116,-6995l34533 -36023c40205,-40205 370808,-374451 387174,-385410 0,47747 -9204,46246 -36160,73202l-329847 329847c-29991,29991 -26783,37924 -74966,37924zm1841500 -14111c13068,-19515 432740,-435459 440973,-440973 0,13068 -2072,36279 -7875,45043l-386169 386414c-11257,9016 -28156,9516 -46929,9516zm-2247194 -285750c-1035,-12440 -4837,-20763 -7448,-31900 -3329,-14206 -355,-17886 10933,-28069l94421 -92598c11881,-12508 5959,-9527 22038,-20295 0,17304 -2290,18493 -3208,32070 -1595,23584 3345,18295 -5173,30105l-60257 59687c-712,737 -2708,2899 -3423,3633l-19909 18896c-4548,4361 -3888,3713 -8762,8877l-19212 19594zm1841500 -14112c-2542,-30548 -18536,-37995 -234,-56510l83494 -82479c512,-514 1256,-1247 1779,-1749l22814 -23048c4741,-4601 7455,-5970 12091,-9075 0,13815 -1689,52897 -8381,62175 -4615,6400 -4377,4446 -8973,8665l-54707 54654c-3508,3597 -2434,2516 -5304,5280l-42579 42087zm-1146528 -31750c2588,-11108 5033,-19154 7444,-31361 7341,-37161 -3851,-25989 26222,-54918l61895 -61577c5261,-4652 5745,-4614 10879,-10287 3219,-3556 1781,-2310 4863,-5720l26281 -26636c13689,58760 13317,41363 -62619,117298 -18526,18527 -56636,60928 -74965,73201zm1841500 -14111c22572,-96886 -3381,-45804 84864,-137386l52720 -53114c13689,58761 13317,41363 -62618,117299 -18527,18527 -56637,60928 -74966,73201zm-2547055 -151694l-1941 7585 1941 -7585zm769055 -7056l-52063 53771c-853,-18584 -4026,-16650 -4381,-32604 17524,-1458 36717,-16571 56444,-21167zm1072445 -7055l-1941 7585 1941 -7585zm-1072445 7055l0 0zm1788584 38806c0,-19215 -5663,-29121 -7056,-45861l80256 -78494c9317,-9341 15469,-20171 29105,-23812 11543,49544 28614,19011 -43215,90841 -15400,15399 -43520,46900 -59090,57326zm-2159000 84667l0 232833c-32606,0 -73350,-15435 -96468,-27005 -30736,-15383 -50808,-30410 -73767,-53233 -123006,-122282 -102612,-350814 80803,-439583 83251,-40291 185755,-32184 264458,20239 15282,10179 22049,12261 26057,23332 -38108,20164 -108695,68715 -149659,93758 -26791,16379 -46380,30227 -60334,59613 -20974,44171 8314,65776 10270,76339 957,5164 -1360,2851 -1360,13707zm2134305 -172861c-3583,-15379 -10528,-19900 -14111,-35278 11754,-4255 2382,0 12252,-8915 5422,-4897 2233,-2020 5381,-5202l20843 -21491c558,-473 1382,-1115 1940,-1587l7528 -6584c16303,-15631 31767,-35176 50834,-47943 33449,24507 8957,40614 -10681,59874l-33876 33152c-9952,11260 -25184,30496 -40110,33974zm-1855611 -123473l0 0zm-589139 -14111l0 0zm1746250 296333c0,-62618 -23387,-27765 46743,-97895 30311,-30311 216077,-219557 231952,-230188 969,11654 4589,21165 7055,31750l-41526 29030c-73978,60627 -64791,90788 -97607,124642 -505,521 -1215,1288 -1722,1806l-58312 58105c-5453,5623 -5014,5152 -10607,10560l-49339 49439c-6850,7600 -15176,18603 -26637,22751zm-1742722 -299861l-3528 3528 3528 -3528zm2155472 -10583c72321,-6018 147680,18954 200249,67863 67809,63087 89029,123574 89029,221415 0,79574 -53473,159746 -98705,194100 -61746,46896 -143918,75460 -225851,56372 5718,-24543 69072,-172999 83664,-209163 9992,-24761 22170,-60354 22170,-83643 0,-23504 -65732,-209337 -70556,-246944zm-2155472 10583l0 0zm1837972 -10583l0 0zm-1827389 0l0 0zm1830917 -3528l-3528 3528 3528 -3528zm0 0l0 0zm561751 92559l-22001 -29059 26898 -29546c3211,-2985 4119,-3501 7473,-6639 18107,-16938 43337,-47318 60879,-59065 12833,8594 16300,15687 24694,28223l-97943 96086zm-1817640 -60809c7458,-11138 40781,-46148 52917,-49389l7567 10159c-7230,9564 -51580,36853 -60484,39230zm-575028 -28222c3292,-12326 1342,-7922 10584,-14111 -3292,12326 -1342,7922 -10584,14111zm1841500 -14111l0 0zm-1823861 -7056c-2136,11548 4492,4920 -7055,7056l7055 -7056zm1823861 7056c3292,-12326 1342,-7922 10584,-14111 -3292,12326 -1342,7922 -10584,14111zm17639 -21167c-2136,11548 4492,4920 -7055,7056l7055 -7056zm-1841500 14111c6023,-8993 6046,-11015 17639,-14111 -6022,8994 -6045,11016 -17639,14111zm24695 -21166l0 0zm458611 91722l-35278 -21167 97911 -99644c9005,6316 19742,16010 29089,18505l-17931 24403c-495,532 -1176,1324 -1669,1859l-72122 76044zm-455084 -95250l-3527 3528 3527 -3528zm1813278 10583c6023,-8993 6046,-11015 17639,-14111 -6022,8994 -6045,11016 -17639,14111zm-1809750 -14111l-3528 3528 3528 -3528zm0 0l0 0zm1834445 -7055l0 0zm458611 91722c-12106,-3232 -7987,-3942 -17897,-10326 -6334,-4081 -11270,-6749 -17381,-10841l97911 -99644c9005,6316 19742,16010 29089,18505l0 10584c-9434,3414 -15237,11048 -21262,17543l-26438 26479c-12620,12629 -39621,35541 -44022,47700zm-603250 158750c0,-47853 17754,-68917 41451,-92604l167569 -167570c11340,-11339 21607,-28275 37924,-32632 1073,12889 7481,29016 10583,42334l-179508 176797c-712,737 -2645,2962 -3349,3706l-47494 47756c-7502,7117 -17809,19712 -27176,22213zm148166 -254000l-3527 3528 3527 -3528zm3528 -3528l-3528 3528 3528 -3528zm0 0l0 0zm-1460500 74083c-15599,-3634 -24447,-10184 -42333,-10583 3667,-13734 38455,-43746 50271,-55562 15011,-15012 40107,-43450 55562,-53799 15378,3583 19900,10528 35278,14111 -1728,6472 -1193,3591 -3550,7032 -363,529 -1043,1497 -1466,2063l-19371 19435c-545,483 -1354,1145 -1894,1633l-60080 59865c-7688,7333 -7685,6863 -12417,15805zm1841500 -14111c-15599,-3634 -24447,-10185 -42333,-10583 3917,-14670 96485,-103101 105833,-109361 15378,3583 19900,10528 35278,14111 -2750,10300 -16767,21782 -24387,28530l-61974 61498c-7688,7333 -7685,6863 -12417,15805zm-1929694 -7055c-25251,0 -38984,3528 -59973,3528l127848 -129682c13363,2464 27275,6426 41486,9737 -3499,13102 -2941,8076 -13643,18107l-5270 5314c-3708,3875 -2453,3100 -6853,7258l-49904 48873c-869,787 -5997,5863 -7104,7007 -13882,14347 -14654,12037 -26587,29858zm1841500 -14111c-40349,0 -59980,9195 -45448,-12887 7709,-11715 95713,-89081 112475,-114113 14211,3310 28123,7272 42334,10583 -3499,13102 -2941,8075 -13643,18107l-45921 45801c-504,522 -1189,1313 -1688,1840l-14418 13804c-869,787 -5997,5862 -7104,7007 -6723,6948 -7785,7426 -14263,13960 -6330,6384 -7876,9254 -12324,15898zm-2286000 232833c0,-58097 24118,-75271 60854,-112007 25502,-25502 207498,-212177 221858,-219114 16333,-7891 50168,-13493 70065,-18129 -18345,27396 -119292,118417 -154865,155579 -502,525 -1194,1307 -1687,1841l-49142 49635c-1022,927 -5511,4893 -5603,4981l-3504 3551c-711,738 -2645,2963 -3349,3707 -4701,4965 -6262,6063 -10762,10405 -522,503 -1288,1214 -1801,1727l-122064 117824zm-7056 116417c0,-68750 -22551,-28602 83785,-134938 38491,-38491 74397,-74397 112889,-112889l196342 -195241c512,-513 1237,-1265 1738,-1789 33357,-34858 13293,-29179 77897,-23629l-140630 140812c-705,743 -2608,2999 -3307,3749 -19338,20754 -61053,30563 -105682,74234 -10255,10034 -16778,19373 -26293,30151 -31999,36247 -19782,46494 -53586,80471 -4283,4305 -3291,3135 -7204,6907 -1008,971 -6338,6364 -7007,7104l-15743 16007c-545,482 -1356,1143 -1896,1632l-5407 5175c-4623,4682 -9408,9568 -14076,14147 -731,717 -2810,2796 -3528,3528l-25839 27078c-4560,4821 -2602,2633 -7313,6797l-30133 29839c-2550,2902 -3283,4196 -6551,7561l-18456 13294zm2230420 -397775c-4443,-16224 -11038,-28335 -11448,-46725 4765,-3191 6910,-4652 11986,-9181 42601,-38008 8463,-35336 83193,-28916l-83731 84822zm-784031 -177253l0 0zm0 0c3918,-16816 12416,-25584 19960,-40012 16839,-32208 20758,-25889 67557,-55915l377370 -240041c36509,-25733 36493,6299 43556,28608l20724 74527 -66015 29235c-23530,10131 -42641,19538 -66005,29245 -41880,17400 -374047,168971 -397147,174353zm-28222 -186972c-8780,0 -10789,-5826 -16935,-11288 -51720,-45964 -148755,-117248 -202574,-164314 -9551,-8353 -22846,-22372 -34491,-25482 31901,-60290 67964,-115881 98777,-172861l63501 -105833c3323,12445 9772,14767 18580,23753l146367 171133c35319,40382 51534,15668 143459,29401l167844 12074 -384528 243417zm-28222 -723195c-115788,0 -173414,-142973 -94410,-221410 14746,-14640 14845,-16129 34344,-25627 135951,-66226 252763,105846 151051,207495 -21394,21380 -60241,39542 -90985,39542zm-261056 -141111c0,157398 86491,193365 105833,222250 -5605,24060 -47580,86302 -62011,110850 -24770,42136 -157656,263328 -173465,309840 -10109,29741 -12755,68583 13187,90877 12582,10813 25958,20305 39346,31209l212032 172497c8382,6633 14038,8263 16772,18505 -12572,3357 -28500,15978 -40297,23203l-159660 101395c-40933,24168 -79175,54317 -121070,76485 -8250,-5524 -12921,-11256 -21144,-17662l-274120 -223296c-21220,-14800 -46461,-22123 -71099,-31207l-193342 -81825c-10821,-5266 -19665,-8009 -29486,-12846 -33331,-16416 -72783,-33636 -102788,-55963 -4361,-3244 -5153,-4876 -9527,-8111l-38118 -25373c-20131,-6440 -36487,19560 -36487,40005 0,19300 23063,26522 36004,34552 91763,56940 153819,76146 254250,116166 19445,7748 34834,12547 52414,21670 179971,93394 42538,2185 225366,141523 26140,19922 155181,123612 162216,134117 -20052,5354 -48766,27712 -66331,39503 -21826,14650 -42958,27414 -64197,41636 -16294,-24333 -46810,-46552 -70047,-64009 -9303,-6989 -16112,-12965 -26627,-19234 -39857,-23760 -77501,-42475 -126724,-56720 -142740,-41308 -311585,-8502 -426555,86205 -19292,15891 -30170,26698 -47696,44026 -15806,15626 -27725,31973 -41153,50569 -14309,19816 -23636,33859 -34971,56751l-28106 63616c-52744,134055 -24202,316660 58509,426943 34539,46052 71025,83800 117883,118479 48735,36067 105073,61737 165932,73957 103069,20694 211029,15500 300864,-29107 110138,-54691 180808,-123090 237505,-235217 56583,-111901 50943,-218511 23491,-336342 21422,-1783 135277,-58827 165311,-71051 15406,-6270 40494,-20368 56939,-24199l-79107 143142c-4752,7890 -7577,10997 -11324,20448 -12455,31409 -4706,67831 22331,87955 29423,21899 64355,20824 89999,-340 19498,-16090 77501,-133095 94677,-162852 15207,-26346 31002,-54159 45702,-81298 10122,-18686 51553,-101360 66572,-109817l55888 -25251c148059,-63754 300017,-137512 447004,-198579l153790 -68460c8817,-3960 16159,-6158 24635,-10643 9089,39014 53971,164299 56444,194028 -18079,4212 -41837,20560 -57998,30196 -46705,27851 -80277,62883 -115679,103043 -7699,8733 -12072,16829 -19365,26496 -24315,32231 -43786,75401 -59514,116875 -50950,134353 -22995,314405 59520,424426l26138 33835c47067,55836 103407,95942 168032,128301 40142,20100 92785,34745 140469,39447 84640,8347 184688,-5804 250040,-38255 52125,-25883 99124,-55119 140170,-96190 45721,-45750 66614,-78270 97335,-139026 60953,-120543 56226,-285284 -4730,-406899 -16118,-32158 -29429,-53335 -49350,-81178l-29075 -34425c-11226,-11346 -21889,-23016 -33602,-33425 -73695,-65490 -175822,-112477 -276023,-115560 -22437,-691 -31735,-6104 -58487,-2039 -14186,2156 -49123,5573 -61464,5573 -1543,-18550 -97485,-333900 -112428,-377933 -2980,-8780 -7787,-20010 -9361,-29949 -2434,-15359 2880,-13629 11780,-26661 62779,-91922 -24968,-222430 -135598,-177931 -27751,11162 -9498,13868 -34673,7700 -33166,-8126 -107328,-11550 -146614,-12555 -51575,-1318 -115829,-5803 -169754,-13690 -26117,-3820 -25209,-13716 -42936,-34675l-134091 -155187c-5999,-7139 -7961,-7649 -13019,-15203 70960,0 130476,-36830 166691,-73198 102473,-102907 103843,-268478 99,-372287 -42746,-42773 -115464,-73098 -191485,-73098 -131794,0 -250472,118701 -250472,250472z"/>
 </g>
</svg>
