<?xml version="1.0" encoding="UTF-8"?>
<!DOCTYPE svg PUBLIC "-//W3C//DTD SVG 1.1//EN" "http://www.w3.org/Graphics/SVG/1.1/DTD/svg11.dtd">
<!-- Creator: CorelDRAW X7 -->
<svg xmlns="http://www.w3.org/2000/svg" xml:space="preserve" width="100mm" height="271mm" version="1.1" style="shape-rendering:geometricPrecision; text-rendering:geometricPrecision; image-rendering:optimizeQuality; fill-rule:evenodd; clip-rule:evenodd"
viewBox="0 0 1000000 2710000"
 xmlns:xlink="http://www.w3.org/1999/xlink">
 <defs>
  <style type="text/css">
   <![CDATA[
    .fil0 {fill:white}
   ]]>
  </style>
 </defs>
 <g id="Слой_x0020_1">
  <metadata id="CorelCorpID_0Corel-Layer"/>
  <path class="fil0" d="M138403 1139806l0 -49389c13041,-3482 72441,-60522 88718,-73560l42663 -38475c9021,-8442 13691,-10123 22977,-19357 34742,-34550 75073,-63365 111079,-97060l285940 -246755c9405,-7910 13759,-11429 22826,-19506l89020 -76786c15429,-11822 29162,-27625 45860,-38807 15378,3583 19900,10529 35278,14112 -12301,18370 -35601,32432 -52329,46448l-229570 200820c-2336,2174 -1754,1796 -5530,5053l-105745 91810c-8782,7416 -15049,12597 -23030,19303 -3605,3029 -1081,778 -5640,4943 -536,490 -1282,1221 -1813,1715l-209219 182365c-529,496 -1269,1233 -1800,1727l-26624 22765c-558,472 -1370,1128 -1929,1600l-54947 47358c-535,491 -1281,1221 -1810,1717 -529,497 -1269,1234 -1794,1734 -8158,7759 -11801,13346 -22581,16225zm0 -95250c0,-67056 -7560,-50012 30706,-82183l517589 -449022c10500,-8124 11512,-9835 20531,-18275l62646 -53770c17157,3997 25177,13642 42333,17639 -3446,12908 -46236,45838 -59124,57292l-148161 127006c-13156,12312 -26802,25210 -41135,36476l-274580 236947c-8638,8031 -12534,9170 -21200,17606l-63431 56513c-8584,8033 -12507,9073 -21236,17571 -8983,8745 -35214,33603 -44938,36200zm0 -109361c0,-60218 -11862,-53232 40297,-93758l219874 -189348c7847,-7473 9717,-7742 17480,-14271l276210 -238845 38760 21256c-10207,15220 -21347,19575 -34368,32524 -26976,26827 -97933,83824 -128712,111178 -7514,6678 -9682,10336 -18280,16997 -9644,7471 -10517,8998 -18854,16424 -48601,43291 -122378,101114 -169268,144704l-128737 111152c-7514,6679 -9682,10337 -18280,16998l-76122 64989zm0 -109361l0 -59973c23300,-15602 154288,-132167 191017,-161760l116789 -101933c7277,-6765 8575,-6519 15706,-12517l134007 -116465c7139,-5999 7650,-7961 15203,-13019 13081,6922 34008,13331 42333,24695 -11467,3062 -110191,92018 -127889,108471l-322174 277548c-23123,17966 -41365,39131 -64992,54953zm0 -112889c0,-69490 -10354,-50390 74608,-119420l260530 -226303c5662,-4339 52371,-45860 52917,-45860 15530,0 29046,13721 45861,17638 -7731,11547 -61965,55061 -78435,69732l-189220 163557c-10723,8469 -16088,14547 -26642,22747 -12420,9650 -16573,15687 -28220,24697 -19758,15287 -36014,32835 -54956,47350 -15063,11541 -42265,42076 -56443,45862zm0 -116417c0,-36878 -5906,-52213 11443,-66167 9656,-7767 11831,-8904 21196,-17610l208172 -179884c9154,-8912 11140,-10296 20762,-18043 8311,-6693 12002,-11568 20653,-18153 9087,-6916 14682,-11492 21163,-21171l45260 22385 -42580 36740c-14303,12710 -27640,26244 -42978,38161l-218094 187600c-8854,8805 -12573,9972 -21146,17660 -9735,8730 -10719,14976 -23851,18482zm0 -109361l0 -59972c9210,-2459 52638,-41663 64347,-52069l63506 -56439c7249,-6783 8597,-6472 15742,-12480l46906 -41289c7711,-5909 24965,-25261 32821,-26538 9420,-1530 27978,12859 41261,15954 -2961,11088 -2582,9131 -11920,16302 -9141,7019 -9057,6522 -17166,14584 -7864,7816 -9338,8079 -17299,14451l-83086 72136c-23119,19553 -42495,38306 -65613,57859 -7762,6566 -9665,6613 -17505,14245 -7397,7202 -8914,9057 -16715,15035 -16376,12548 -10597,11693 -35279,28221zm0 -109361c0,-75931 -8710,-46329 57292,-104986l63538 -56405c6713,-6277 16744,-13795 23809,-18526 17156,3997 25176,13642 42333,17639 -11966,17869 -48756,44297 -66144,60856 -12498,11903 -111750,98998 -120828,101422zm0 -109361c0,-56836 -6588,-55266 16088,-72107 15929,-11830 32527,-30815 47412,-40782l42292 21248 -105792 91641zm0 -105833l0 -38806 28164 14225c-8536,12720 -15629,16187 -28164,24581zm-116417 2532943l116417 0 10131 -1489174 139714 -121341c5418,-4668 8012,-6309 13545,-11150l12799 -11896c3806,-3382 7035,-5713 11620,-9546l76849 -67790c4754,-3984 8407,-6637 13496,-11198l10923 -10243c4564,-4058 8429,-6899 13497,-11198l63991 -55954c557,-472 1358,-1141 1917,-1611l60503 -52385c530,-496 1270,-1232 1801,-1727l113604 -98063c2246,-1965 3604,-3233 5545,-5038l289676 -253602c-142718,-75517 -326009,-163004 -475074,-237537l-413926 -206963c-20555,-10277 -37178,-24694 -67028,-24694l0 2681110z"/>
 </g>
</svg>
